<svg width="24" height="24" viewBox="0 0 24 24" fill="none" xmlns="http://www.w3.org/2000/svg">
<circle cx="12" cy="12" r="11.5" stroke="#EA2027"/>
<circle cx="11.9999" cy="12" r="9.6" fill="#EA2027" fill-opacity="0.15"/>
<circle cx="12" cy="12" r="11.5" stroke="#EA2027"/>
<circle cx="11.9999" cy="11.9999" r="9.6" fill="#EA2027" fill-opacity="0.15"/>
<path d="M9.668 17.178C8.548 17.178 7.68467 16.9027 7.078 16.352C6.47133 15.8013 6.112 15.1013 6 14.252H7.96C8.06267 14.6347 8.25867 14.9333 8.548 15.148C8.83733 15.3627 9.206 15.47 9.654 15.47C10.1673 15.47 10.564 15.3393 10.844 15.078C11.1333 14.8073 11.278 14.4667 11.278 14.056C11.278 13.6173 11.124 13.2767 10.816 13.034C10.5173 12.782 10.1347 12.656 9.668 12.656H8.786V11.186H9.682C10.102 11.186 10.4473 11.0787 10.718 10.864C10.9887 10.64 11.124 10.3273 11.124 9.926C11.124 9.52467 10.984 9.20267 10.704 8.96C10.4333 8.71733 10.074 8.596 9.626 8.596C9.19667 8.596 8.85133 8.70333 8.59 8.918C8.338 9.13267 8.17467 9.42667 8.1 9.8H6.196C6.31733 9.00667 6.65333 8.344 7.204 7.812C7.75467 7.27067 8.56667 7 9.64 7C10.424 7 11.0727 7.14467 11.586 7.434C12.0993 7.714 12.468 8.07333 12.692 8.512C12.9253 8.95067 13.042 9.39867 13.042 9.856C13.042 10.3227 12.93 10.71 12.706 11.018C12.4913 11.326 12.258 11.5547 12.006 11.704C11.7633 11.8533 11.6093 11.928 11.544 11.928V12.012C11.74 12.0773 11.9407 12.166 12.146 12.278C12.3513 12.3807 12.5707 12.5953 12.804 12.922C13.0373 13.2487 13.154 13.6873 13.154 14.238C13.154 14.7607 13.028 15.246 12.776 15.694C12.524 16.142 12.1367 16.5013 11.614 16.772C11.0913 17.0427 10.4427 17.178 9.668 17.178Z" fill="#E8252C"/>
<path d="M16.0097 17.164C15.3843 17.164 14.843 17.0474 14.3857 16.814C13.9377 16.5807 13.597 16.2774 13.3637 15.904C13.1303 15.5214 13.0137 15.12 13.0137 14.7V14.616H14.9037V14.7C14.9037 14.952 15.0017 15.176 15.1977 15.372C15.3937 15.568 15.6783 15.666 16.0517 15.666C16.3597 15.666 16.607 15.596 16.7937 15.456C16.9897 15.3067 17.0877 15.106 17.0877 14.854C17.0877 14.63 17.0037 14.4527 16.8357 14.322C16.6677 14.1914 16.4577 14.1074 16.2057 14.07L15.3657 13.902C14.815 13.7994 14.3157 13.58 13.8677 13.244C13.4197 12.908 13.1957 12.3994 13.1957 11.718C13.1957 11.018 13.4523 10.472 13.9657 10.08C14.479 9.67869 15.137 9.47803 15.9397 9.47803C16.5277 9.47803 17.0363 9.58536 17.4657 9.80003C17.895 10.0147 18.2217 10.2994 18.4457 10.654C18.6697 10.9994 18.7817 11.3727 18.7817 11.774V11.83H16.8917V11.788C16.8917 11.564 16.8077 11.3587 16.6397 11.172C16.4717 10.976 16.215 10.878 15.8697 10.878C15.5803 10.878 15.347 10.9527 15.1697 11.102C14.9923 11.2514 14.9037 11.4474 14.9037 11.69C14.9037 11.914 14.9923 12.0914 15.1697 12.222C15.3563 12.3527 15.585 12.4414 15.8557 12.488L16.7797 12.67C17.377 12.8007 17.881 13.0387 18.2917 13.384C18.7023 13.72 18.9077 14.2007 18.9077 14.826C18.9077 15.2927 18.7817 15.7034 18.5297 16.058C18.2777 16.4127 17.9277 16.688 17.4797 16.884C17.041 17.0707 16.551 17.164 16.0097 17.164Z" fill="#E8252C"/>
</svg>
