<svg width="216" height="40" viewBox="0 0 216 40" fill="none" xmlns="http://www.w3.org/2000/svg">
<path d="M27.3667 22.8475C28.6098 24.5107 29.2146 26.5099 29.2146 28.8786C29.2146 31.1298 28.6098 33.0785 27.3835 34.7417C26.1739 36.4049 24.4435 37.6816 22.2092 38.5888C19.9748 39.496 17.3709 39.9496 14.3805 39.9496C11.9782 39.9496 9.67661 39.6304 7.45905 38.9752C5.24149 38.3368 3.32633 37.396 1.71357 36.1865C1.09198 35.7161 0.638387 35.1953 0.386392 34.6577C0.134397 34.1201 0 33.4817 0 32.7425C0 31.6002 0.319194 30.6258 0.940781 29.8362C1.56237 29.0466 2.33515 28.6434 3.25913 28.6434C3.77992 28.6434 4.23352 28.7274 4.63671 28.8954C5.0399 29.0634 5.59429 29.3322 6.29987 29.7018C6.45107 29.769 6.61907 29.853 6.82066 29.9538C7.02226 30.0546 7.25745 30.1554 7.50945 30.2562C8.68542 30.8442 9.7438 31.2978 10.6846 31.617C11.6254 31.9362 12.6837 32.0874 13.8597 32.0874C15.9261 32.0874 17.4045 31.7514 18.3116 31.0962C19.2188 30.4242 19.6724 29.3322 19.6724 27.7698C19.6724 26.3251 19.2188 25.3003 18.2948 24.6787C17.3709 24.0571 15.8589 23.7379 13.7589 23.7379H10.3654C9.25661 23.7379 8.39983 23.3515 7.76144 22.5787C7.13986 21.806 6.82066 20.882 6.82066 19.8068C6.82066 18.7316 7.13986 17.8076 7.76144 17.0349C8.38303 16.2621 9.25661 15.8757 10.3654 15.8757H12.8013C14.8341 15.8757 16.3125 15.5733 17.2197 14.9853C18.1436 14.3973 18.5972 13.4565 18.5972 12.163C18.5972 10.8022 18.194 9.7438 17.3877 8.98782C16.5813 8.23183 15.4557 7.84544 14.0109 7.84544C12.9861 7.84544 12.0118 8.01344 11.1046 8.34943C10.1974 8.68543 9.18941 9.12222 8.09744 9.67661L6.93826 10.231C6.23268 10.6006 5.67829 10.8694 5.27509 11.0374C4.8719 11.2054 4.40151 11.2894 3.89752 11.2894C2.97354 11.2894 2.20076 10.8862 1.57917 10.0966C0.957581 9.30701 0.638387 8.33263 0.638387 7.19026C0.638387 6.41747 0.772784 5.77908 1.02478 5.25829C1.27677 4.7375 1.73037 4.25031 2.35195 3.76312C3.93112 2.58715 5.81268 1.66317 7.96304 0.99118C10.1134 0.335993 12.2974 0 14.5149 0C17.2365 0 19.6556 0.436791 21.7388 1.32717C23.8219 2.21756 25.4179 3.46073 26.5435 5.0903C27.669 6.71986 28.2234 8.60143 28.2234 10.735C28.2234 12.7677 27.7026 14.5485 26.6443 16.0773C25.5859 17.606 24.1243 18.7316 22.2428 19.4204C24.4267 20.042 26.1403 21.1844 27.3667 22.8475Z" fill="white"/>
<path d="M42.6378 39.0256C40.1178 38.3872 38.0346 37.48 36.4219 36.3377C35.8003 35.8673 35.3467 35.3633 35.0611 34.8425C34.7923 34.3217 34.6411 33.6665 34.6411 32.8433C34.6411 31.7346 34.9771 30.777 35.6323 29.9706C36.3043 29.1642 37.0771 28.761 37.9506 28.761C38.421 28.761 38.8914 28.8282 39.3282 28.9794C39.765 29.1306 40.3194 29.3994 40.9914 29.8026C42.5034 30.6594 43.9985 31.2642 45.4937 31.6338C46.9889 32.0034 48.6688 32.1882 50.5504 32.1882C52.7175 32.1882 54.3807 31.869 55.5063 31.2138C56.6319 30.5754 57.1863 29.6178 57.1863 28.3578C57.1863 27.5178 56.6655 26.7787 55.6071 26.1739C54.5487 25.5691 52.5496 24.9643 49.6096 24.3763C45.9641 23.6035 43.1081 22.6795 41.0418 21.6044C38.9754 20.5292 37.5307 19.2692 36.7075 17.8076C35.8843 16.3461 35.4643 14.5989 35.4643 12.5325C35.4643 10.1806 36.1699 8.03024 37.5643 6.11508C38.9586 4.19992 40.8906 2.68795 43.3433 1.61277C45.8129 0.537589 48.568 0 51.6256 0C54.3135 0 56.7159 0.302394 58.8158 0.890382C60.9158 1.47837 62.8309 2.40235 64.5613 3.66233C65.2165 4.14952 65.6869 4.65351 65.9725 5.1911C66.2413 5.72868 66.3925 6.38387 66.3925 7.15666C66.3925 8.26543 66.0733 9.22301 65.4181 10.0294C64.7797 10.8358 64.0069 11.239 63.1165 11.239C62.6294 11.239 62.1926 11.1718 61.7894 11.0374C61.3862 10.903 60.815 10.6174 60.0758 10.1806C59.891 10.063 59.3702 9.7774 58.4966 9.32381C57.6231 8.87022 56.6151 8.50063 55.4559 8.21504C54.2967 7.94624 53.0367 7.79504 51.6592 7.79504C49.7776 7.79504 48.2656 8.14784 47.1233 8.87022C45.9809 9.59261 45.4097 10.5334 45.4097 11.7262C45.4097 12.4318 45.6113 13.0029 46.0145 13.4397C46.4177 13.8765 47.1737 14.3133 48.2824 14.7333C49.3912 15.1533 51.0376 15.5901 53.2047 16.0269C56.7495 16.7997 59.5214 17.7404 61.5542 18.8156C63.5869 19.9076 65.0149 21.1676 65.8717 22.6123C66.7117 24.0571 67.1485 25.7539 67.1485 27.7026C67.1485 30.1386 66.4597 32.289 65.0989 34.1537C63.7381 36.0185 61.823 37.4464 59.3702 38.4712C56.9175 39.4792 54.0615 40 50.8192 40C47.896 40 45.1577 39.664 42.6378 39.0256Z" fill="white"/>
<path d="M128.45 1.59535C129.341 2.51933 129.777 3.7121 129.777 5.19047V35.2787C129.777 36.673 129.374 37.7818 128.568 38.605C127.761 39.4114 126.686 39.8146 125.359 39.8146C124.066 39.8146 123.007 39.4114 122.184 38.605C121.361 37.7986 120.941 36.6898 120.941 35.2787V19.0166L114.641 30.6252C114.019 31.8011 113.347 32.6411 112.642 33.1451C111.936 33.6491 111.113 33.8843 110.155 33.8843C109.198 33.8843 108.358 33.6323 107.669 33.1451C106.963 32.6411 106.308 31.8011 105.67 30.6252L99.4204 19.3358V35.2619C99.4204 36.6226 99.0004 37.7314 98.1772 38.5546C97.3541 39.3778 96.2621 39.7978 94.9349 39.7978C93.6413 39.7978 92.583 39.3946 91.7598 38.5882C90.9366 37.7818 90.5166 36.673 90.5166 35.2619V5.20727C90.5166 3.7289 90.9702 2.53613 91.8774 1.61215C92.7846 0.688164 93.9269 0.234573 95.3381 0.234573C96.3293 0.234573 97.2365 0.520167 98.0428 1.09136C98.8492 1.66254 99.538 2.48573 100.092 3.56091L110.256 22.6789L120.386 3.54411C121.529 1.32655 123.074 0.217773 125.04 0.217773C126.434 0.217773 127.577 0.688164 128.45 1.59535Z" fill="white"/>
<path d="M159.126 14.6328C161.142 16.6488 162.134 19.6895 162.134 23.7887V35.3468C162.134 36.7412 161.714 37.85 160.89 38.6396C160.067 39.4291 158.908 39.8323 157.43 39.8323C156.136 39.8323 155.078 39.4627 154.255 38.7236C153.431 37.9844 152.978 36.9932 152.894 35.7332C152.373 37.0604 151.516 38.102 150.29 38.8244C149.08 39.5635 147.619 39.9331 145.922 39.9331C144.04 39.9331 142.344 39.5467 140.832 38.8076C139.32 38.0516 138.127 36.9932 137.27 35.6492C136.397 34.3052 135.977 32.7765 135.977 31.0797C135.977 29.1309 136.481 27.5686 137.505 26.4094C138.513 25.2502 140.126 24.4102 142.344 23.8894C144.561 23.3687 147.552 23.1167 151.298 23.1167H152.793V22.4615C152.793 21.1679 152.491 20.2439 151.903 19.6727C151.315 19.1015 150.323 18.816 148.912 18.816C147.4 18.816 145.183 19.3367 142.276 20.3615C141.42 20.6639 140.714 20.7983 140.126 20.7983C139.202 20.7983 138.463 20.4623 137.909 19.8071C137.354 19.1519 137.085 18.2784 137.085 17.2032C137.085 16.3968 137.253 15.7248 137.589 15.204C137.925 14.6832 138.463 14.2296 139.185 13.8265C140.479 13.1713 142.092 12.6337 144.057 12.2305C146.006 11.8273 147.921 11.6257 149.803 11.6257C154.019 11.6089 157.127 12.6169 159.126 14.6328ZM151.533 31.9533C152.373 31.0125 152.81 29.8029 152.81 28.3246V27.6526H151.919C149.551 27.6526 147.888 27.871 146.88 28.291C145.888 28.711 145.384 29.4165 145.384 30.4245C145.384 31.2813 145.653 31.9701 146.191 32.5245C146.728 33.0789 147.417 33.3477 148.257 33.3477C149.584 33.3477 150.676 32.8773 151.533 31.9533Z" fill="white"/>
<path d="M188.744 12.5827C189.483 13.2715 189.853 14.2627 189.853 15.5898C189.853 17.0682 189.517 18.1266 188.828 18.7986C188.139 19.4706 186.913 19.8906 185.149 20.0754L183.486 20.2433C181.638 20.4617 180.327 21.0497 179.538 21.9905C178.748 22.9313 178.345 24.2081 178.345 25.8376V35.2958C178.345 36.8078 177.875 37.9502 176.934 38.7062C175.993 39.4622 174.817 39.8318 173.423 39.8318C172.028 39.8318 170.852 39.4622 169.912 38.7062C168.971 37.9502 168.5 36.8246 168.5 35.2958V16.1442C168.5 14.7499 168.971 13.6579 169.912 12.8851C170.852 12.1123 171.978 11.7259 173.305 11.7259C174.666 11.7259 175.775 12.0955 176.598 12.8347C177.421 13.5739 177.841 14.5987 177.841 15.9258V16.9842C178.429 15.3546 179.403 14.1115 180.747 13.2211C182.091 12.3307 183.503 11.8603 184.981 11.7763L185.754 11.7259C187.014 11.6083 188.022 11.8939 188.744 12.5827Z" fill="white"/>
<path d="M215.254 36.1193C215.254 37.4129 214.75 38.3704 213.759 38.992C212.768 39.6136 211.34 39.8824 209.492 39.7648L207.946 39.6472C204.62 39.3952 202.117 38.3872 200.403 36.6401C198.689 34.8929 197.833 32.4402 197.833 29.3154V19.5212H196.237C193.28 19.5212 191.818 18.3116 191.818 15.8757C191.818 13.4733 193.297 12.2806 196.237 12.2806H197.833V8.68543C197.833 7.29106 198.269 6.16548 199.16 5.3423C200.05 4.51911 201.243 4.09912 202.755 4.09912C204.267 4.09912 205.46 4.51911 206.35 5.3423C207.24 6.16548 207.677 7.29106 207.677 8.68543V12.2806H210.718C213.675 12.2806 215.136 13.4733 215.136 15.8757C215.136 18.3116 213.658 19.5212 210.718 19.5212H207.66V30.1386C207.66 30.8442 207.879 31.4322 208.299 31.9026C208.719 32.3898 209.273 32.6418 209.928 32.6754L211.524 32.7929C214.011 32.9441 215.254 34.0529 215.254 36.1193Z" fill="white"/>
</svg>
