<svg width="18" height="22" viewBox="0 0 18 22" fill="none" xmlns="http://www.w3.org/2000/svg">
<path d="M14.084 13.812C15.0244 12.8184 15.653 11.571 15.8922 10.224C16.1314 8.87695 15.9706 7.48938 15.4297 6.23277C14.8888 4.97615 13.9916 3.90556 12.8489 3.15334C11.7062 2.40112 10.3681 2.00023 9 2.00023C7.63193 2.00023 6.29384 2.40112 5.15112 3.15334C4.00841 3.90556 3.11117 4.97615 2.5703 6.23277C2.02943 7.48938 1.86863 8.87695 2.1078 10.224C2.34696 11.571 2.9756 12.8184 3.916 13.812C4.45567 12.9508 5.20536 12.241 6.09467 11.7491C6.98398 11.2572 7.98373 10.9994 9 11C10.0163 10.9994 11.016 11.2572 11.9053 11.7491C12.7946 12.241 13.5443 12.9508 14.084 13.812ZM9 21.728L2.636 15.364C1.37734 14.1053 0.520187 12.5017 0.172928 10.7558C-0.17433 9.01001 0.00390685 7.20041 0.685099 5.55588C1.36629 3.91136 2.51984 2.50575 3.99988 1.51683C5.47992 0.527899 7.21998 6.10352e-05 9 6.10352e-05C10.78 6.10352e-05 12.5201 0.527899 14.0001 1.51683C15.4802 2.50575 16.6337 3.91136 17.3149 5.55588C17.9961 7.20041 18.1743 9.01001 17.8271 10.7558C17.4798 12.5017 16.6227 14.1053 15.364 15.364L9 21.728ZM9 9.99998C8.20435 9.99998 7.44129 9.68391 6.87868 9.1213C6.31607 8.55869 6 7.79563 6 6.99998C6 6.20433 6.31607 5.44127 6.87868 4.87866C7.44129 4.31605 8.20435 3.99998 9 3.99998C9.79565 3.99998 10.5587 4.31605 11.1213 4.87866C11.6839 5.44127 12 6.20433 12 6.99998C12 7.79563 11.6839 8.55869 11.1213 9.1213C10.5587 9.68391 9.79565 9.99998 9 9.99998Z" fill="#374266"/>
</svg>
