<svg width="24" height="24" viewBox="0 0 24 24" fill="none" xmlns="http://www.w3.org/2000/svg">
<g clip-path="url(#clip0_1497:32240)">
<path d="M20.48 4.816C20.299 4.816 20.119 4.752 19.975 4.62C17.768 2.608 14.936 1.5 12 1.5C9.06397 1.5 6.23197 2.608 4.02497 4.621C3.71797 4.9 3.24397 4.877 2.96497 4.572C2.68597 4.266 2.70797 3.791 3.01397 3.512C5.49897 1.247 8.68997 0 12 0C15.31 0 18.501 1.247 20.986 3.512C21.292 3.791 21.314 4.265 21.035 4.572C20.887 4.734 20.684 4.816 20.48 4.816Z" fill="white"/>
<path d="M21.7501 9.71657C21.5091 9.71657 21.2711 9.60057 21.1271 9.38457C19.0451 6.28457 15.6331 4.43357 12.0001 4.43357C8.36711 4.43357 4.95511 6.28457 2.87311 9.38457C2.64211 9.72957 2.17511 9.82157 1.83211 9.58957C1.48811 9.35857 1.39611 8.89257 1.62711 8.54857C3.98811 5.03357 7.86611 2.93457 12.0001 2.93457C16.1341 2.93457 20.0121 5.03357 22.3731 8.54957C22.6041 8.89357 22.5131 9.35957 22.1681 9.59057C22.0401 9.67557 21.8951 9.71657 21.7501 9.71657Z" fill="white"/>
<path d="M9.63106 24.0002C9.43806 24.0002 9.24506 23.9262 9.09806 23.7782C8.93406 23.6132 5.09106 19.6902 5.09106 15.9132C5.09106 11.9932 8.19006 8.8042 12.0001 8.8042C15.8101 8.8042 18.9091 11.9932 18.9091 15.9132C18.9091 16.3272 18.5731 16.6632 18.1591 16.6632C17.7451 16.6632 17.4091 16.3272 17.4091 15.9132C17.4091 12.8202 14.9831 10.3042 12.0001 10.3042C9.01706 10.3042 6.59106 12.8202 6.59106 15.9132C6.59106 19.0802 10.1281 22.6862 10.1641 22.7222C10.4561 23.0162 10.4541 23.4912 10.1591 23.7832C10.0131 23.9282 9.82206 24.0002 9.63106 24.0002Z" fill="white"/>
<path d="M14.369 23.9996C12.565 23.9996 8.38305 20.5676 7.97805 16.7457C7.83505 15.3947 8.26505 14.0126 9.12705 13.0486C9.87705 12.2106 10.89 11.7456 11.979 11.7397H12C13.062 11.7397 14.066 12.1567 14.83 12.9157C15.628 13.7087 16.067 14.7736 16.067 15.9136V16.4026C16.067 17.6076 17.005 18.5876 18.159 18.5876C19.313 18.5876 20.252 17.6076 20.252 16.4026V16.2317C20.252 11.5617 16.869 7.67665 12.55 7.38865C10.298 7.23565 8.13805 8.01365 6.47105 9.57165C4.74105 11.1897 3.74905 13.5016 3.74905 15.9136C3.74905 17.8976 4.42105 19.8306 5.64105 21.3566C5.89905 21.6806 5.84705 22.1516 5.52305 22.4106C5.20005 22.6696 4.72805 22.6166 4.46805 22.2926C3.03705 20.5016 2.24805 18.2356 2.24805 15.9127C2.24805 13.0867 3.41405 10.3757 5.44505 8.47565C7.41805 6.62965 9.97605 5.71165 12.648 5.89065C17.752 6.23165 21.751 10.7737 21.751 16.2307V16.4017C21.751 18.4337 20.139 20.0866 18.158 20.0866C16.177 20.0866 14.566 18.4337 14.566 16.4017V15.9127C14.566 15.1747 14.284 14.4887 13.772 13.9787C13.292 13.5006 12.663 13.2387 12 13.2387C11.995 13.2387 11.991 13.2387 11.986 13.2387C11.141 13.2427 10.572 13.6816 10.244 14.0486C9.65905 14.7016 9.36905 15.6516 9.46805 16.5876C9.79905 19.7056 13.382 22.5006 14.368 22.5006C14.782 22.5006 15.118 22.8366 15.118 23.2506C15.118 23.6646 14.783 23.9996 14.369 23.9996Z" fill="white"/>
<path d="M17.1519 22.5333C14.4679 22.5333 11.1909 19.2533 11.1909 15.4243C11.1909 15.0103 11.5269 14.6743 11.9409 14.6743C12.3549 14.6743 12.6909 15.0103 12.6909 15.4243C12.6909 18.3923 15.1859 21.0333 17.1519 21.0333C17.5659 21.0333 17.9019 21.3693 17.9019 21.7833C17.9019 22.1973 17.5659 22.5333 17.1519 22.5333Z" fill="white"/>
</g>
<defs>
<clipPath id="clip0_1497:32240">
<rect width="24" height="24" fill="white"/>
</clipPath>
</defs>
</svg>
