<svg width="20" height="20" viewBox="0 0 20 20" fill="none" xmlns="http://www.w3.org/2000/svg">
<path d="M0.0500488 11H5.52705C5.69816 14.1668 6.7076 17.2314 8.45205 19.88C6.26698 19.5368 4.25724 18.4791 2.73707 16.8725C1.21689 15.2658 0.271967 13.2007 0.0500488 11ZM0.0500488 9C0.271967 6.7993 1.21689 4.73417 2.73707 3.12751C4.25724 1.52084 6.26698 0.463218 8.45205 0.119995C6.7076 2.76861 5.69816 5.83314 5.52705 9H0.0500488ZM19.95 9H14.473C14.3019 5.83314 13.2925 2.76861 11.548 0.119995C13.7331 0.463218 15.7429 1.52084 17.263 3.12751C18.7832 4.73417 19.7281 6.7993 19.95 9ZM19.95 11C19.7281 13.2007 18.7832 15.2658 17.263 16.8725C15.7429 18.4791 13.7331 19.5368 11.548 19.88C13.2925 17.2314 14.3019 14.1668 14.473 11H19.951H19.95ZM7.53005 11H12.47C12.3055 13.6995 11.4553 16.3124 10 18.592C8.54475 16.3124 7.69464 13.6995 7.53005 11ZM7.53005 9C7.69464 6.30051 8.54475 3.68756 10 1.408C11.4553 3.68756 12.3055 6.30051 12.47 9H7.53005Z" fill="#121212" fill-opacity="0.6"/>
</svg>
