<svg width="32" height="32" viewBox="0 0 32 32" fill="none" xmlns="http://www.w3.org/2000/svg">
<circle cx="16" cy="16" r="15.5" stroke="#EA2027"/>
<circle cx="15.9997" cy="16" r="12.8" fill="#EA2027" fill-opacity="0.15"/>
<circle cx="16" cy="16" r="15.5" stroke="#EA2027"/>
<circle cx="15.9997" cy="16" r="12.8" fill="#EA2027" fill-opacity="0.15"/>
<path d="M12.8907 22.9039C11.3973 22.9039 10.2462 22.5368 9.43733 21.8026C8.62844 21.0684 8.14933 20.135 8 19.0026H10.6133C10.7502 19.5128 11.0116 19.911 11.3973 20.1973C11.7831 20.4835 12.2747 20.6266 12.872 20.6266C13.5564 20.6266 14.0853 20.4524 14.4587 20.1039C14.8444 19.743 15.0373 19.2888 15.0373 18.7413C15.0373 18.1564 14.832 17.7021 14.4213 17.3786C14.0231 17.0426 13.5129 16.8746 12.8907 16.8746H11.7147V14.9146H12.9093C13.4693 14.9146 13.9298 14.7715 14.2907 14.4853C14.6516 14.1866 14.832 13.7697 14.832 13.2346C14.832 12.6995 14.6453 12.2701 14.272 11.9466C13.9111 11.623 13.432 11.4613 12.8347 11.4613C12.2622 11.4613 11.8018 11.6044 11.4533 11.8906C11.1173 12.1768 10.8996 12.5688 10.8 13.0666H8.26133C8.42311 12.0088 8.87111 11.1253 9.60533 10.4159C10.3396 9.69414 11.4222 9.33325 12.8533 9.33325C13.8987 9.33325 14.7636 9.52614 15.448 9.91192C16.1324 10.2853 16.624 10.7644 16.9227 11.3493C17.2338 11.9341 17.3893 12.5315 17.3893 13.1413C17.3893 13.7635 17.24 14.2799 16.9413 14.6906C16.6551 15.1013 16.344 15.4061 16.008 15.6053C15.6844 15.8044 15.4791 15.9039 15.392 15.9039V16.0159C15.6533 16.103 15.9209 16.2213 16.1947 16.3706C16.4684 16.5075 16.7609 16.7937 17.072 17.2293C17.3831 17.6648 17.5387 18.2497 17.5387 18.9839C17.5387 19.6808 17.3707 20.3279 17.0347 20.9253C16.6987 21.5226 16.1822 22.0017 15.4853 22.3626C14.7884 22.7235 13.9236 22.9039 12.8907 22.9039Z" fill="#E8252C"/>
<path d="M21.3462 22.8855C20.5125 22.8855 19.7907 22.7299 19.1809 22.4188C18.5836 22.1077 18.1293 21.7032 17.8182 21.2055C17.5071 20.6952 17.3516 20.1601 17.3516 19.6001V19.4881H19.8716V19.6001C19.8716 19.9361 20.0022 20.2348 20.2636 20.4961C20.5249 20.7575 20.9045 20.8881 21.4022 20.8881C21.8129 20.8881 22.1427 20.7948 22.3916 20.6081C22.6529 20.409 22.7836 20.1415 22.7836 19.8055C22.7836 19.5068 22.6716 19.2703 22.4476 19.0961C22.2236 18.9219 21.9436 18.8099 21.6076 18.7601L20.4876 18.5361C19.7533 18.3992 19.0876 18.1068 18.4902 17.6588C17.8929 17.2108 17.5942 16.5326 17.5942 15.6241C17.5942 14.6908 17.9365 13.9628 18.6209 13.4401C19.3053 12.905 20.1827 12.6375 21.2529 12.6375C22.0369 12.6375 22.7151 12.7806 23.2876 13.0668C23.86 13.353 24.2956 13.7326 24.5942 14.2055C24.8929 14.6659 25.0422 15.1637 25.0422 15.6988V15.7735H22.5222V15.7175C22.5222 15.4188 22.4102 15.145 22.1862 14.8961C21.9622 14.6348 21.62 14.5041 21.1596 14.5041C20.7738 14.5041 20.4627 14.6037 20.2262 14.8028C19.9898 15.0019 19.8716 15.2632 19.8716 15.5868C19.8716 15.8855 19.9898 16.1219 20.2262 16.2961C20.4751 16.4703 20.78 16.5886 21.1409 16.6508L22.3729 16.8935C23.1693 17.0677 23.8413 17.385 24.3889 17.8455C24.9365 18.2935 25.2102 18.9343 25.2102 19.7681C25.2102 20.3903 25.0422 20.9379 24.7062 21.4108C24.3702 21.8837 23.9036 22.2508 23.3062 22.5121C22.7213 22.761 22.068 22.8855 21.3462 22.8855Z" fill="#E8252C"/>
</svg>
