<svg width="14" height="14" viewBox="0 0 14 14" fill="none" xmlns="http://www.w3.org/2000/svg">
<path d="M13.0668 0.533325L0.530137 4.71199C0.465248 4.7335 0.408541 4.77444 0.367701 4.82926C0.326861 4.88408 0.303864 4.95013 0.301826 5.01846C0.299788 5.08679 0.31881 5.1541 0.35631 5.21125C0.39381 5.26841 0.447978 5.31265 0.51147 5.33799L6.33347 7.66666L9.28347 13.5667C9.31349 13.6267 9.36096 13.6763 9.41965 13.709C9.47835 13.7416 9.54554 13.7558 9.61241 13.7496C9.67929 13.7434 9.74273 13.7171 9.79443 13.6743C9.84613 13.6314 9.88367 13.5739 9.90214 13.5093L13.4935 0.940658C13.5101 0.882268 13.5105 0.820443 13.4945 0.761856C13.4786 0.70327 13.447 0.650148 13.4031 0.608223C13.3592 0.566298 13.3046 0.537164 13.2454 0.523964C13.1861 0.510765 13.1244 0.514001 13.0668 0.533325Z" fill="#EA2027"/>
</svg>
