<svg width="24" height="24" viewBox="0 0 24 24" fill="none" xmlns="http://www.w3.org/2000/svg">
<g clip-path="url(#clip0_2070:32088)">
<path d="M22.6528 3.61936V11.3259C22.6528 13.2333 21.7786 15.4473 20.1918 17.5601C18.3425 20.0216 15.6185 22.1943 12.3141 23.8434L12.0001 24L11.686 23.8434C8.38163 22.1943 5.65761 20.0216 3.80832 17.5601C2.22154 15.4473 1.34729 13.2333 1.34729 11.3259V3.61936L6.52999 0H17.4701L22.6528 3.61936Z" fill="#00358F"/>
<path d="M22.6528 3.61936V11.3259C22.6528 13.2333 21.7785 15.4473 20.1917 17.5601C18.3424 20.0216 15.6184 22.1943 12.3141 23.8434L12 24V0H17.4701L22.6528 3.61936Z" fill="#012453"/>
<path d="M16.5851 2.81274H7.41504L4.15991 5.0858V11.326C4.15991 13.4707 6.26984 17.6615 12.0001 20.8317C17.7303 17.6615 19.8402 13.4707 19.8402 11.326V5.0858L16.5851 2.81274Z" fill="#00B3FE"/>
<path d="M19.8401 5.0858V11.326C19.8401 13.4707 17.7302 17.6615 12 20.8317V2.81274H16.585L19.8401 5.0858Z" fill="#0274F9"/>
<path d="M16.8064 2.10962H7.19381L3.45679 4.71925V11.3261C3.45679 12.6977 4.1515 14.4406 5.36233 16.1075C6.83661 18.1373 9.01404 19.9838 11.6598 21.4473L12.0001 21.6357L12.3404 21.4473C14.9861 19.9838 17.1636 18.1373 18.6378 16.1075C19.8487 14.4406 20.5434 12.6977 20.5434 11.3261V4.71925L16.8064 2.10962ZM19.1371 11.3261C19.1371 13.1969 17.2287 17.0169 12.0001 20.0245C6.77145 17.0169 4.86309 13.1969 4.86309 11.3261V5.45241L7.63633 3.51592H16.3639L19.1371 5.45241V11.3261Z" fill="#EFF5FA"/>
<path d="M20.5433 4.71925V11.3261C20.5433 12.6977 19.8486 14.4406 18.6378 16.1075C17.1635 18.1373 14.9861 19.9838 12.3403 21.4473L12 21.6357V20.0245C17.2286 17.0169 19.137 13.1969 19.137 11.3261V5.45241L16.3638 3.51592H12V2.10962H16.8063L20.5433 4.71925Z" fill="#C6E1EC"/>
<path d="M16.4891 8.16767L12.0002 12.7813L11.9908 12.7911L10.8493 13.964L7.51123 10.842L8.47174 9.81493L10.8025 11.9952L11.9908 10.7745L12.0002 10.7647L15.4812 7.18701L16.4891 8.16767Z" fill="#EFF5FA"/>
<path d="M16.4889 8.16768L12 12.7813V10.7647L15.4811 7.18701L16.4889 8.16768Z" fill="#C6E1EC"/>
</g>
<defs>
<clipPath id="clip0_2070:32088">
<rect width="24" height="24" fill="white"/>
</clipPath>
</defs>
</svg>
