<svg width="22" height="20" viewBox="0 0 22 20" fill="none" xmlns="http://www.w3.org/2000/svg">
<path d="M19 19C19 19.2652 18.8946 19.5196 18.7071 19.7071C18.5196 19.8947 18.2652 20 18 20H4C3.73478 20 3.48043 19.8947 3.29289 19.7071C3.10536 19.5196 3 19.2652 3 19V10H0L10.327 0.612012C10.5111 0.444489 10.7511 0.351654 11 0.351654C11.2489 0.351654 11.4889 0.444489 11.673 0.612012L22 10H19V19ZM6.5 12C6.5 13.1935 6.97411 14.3381 7.81802 15.182C8.66193 16.0259 9.80653 16.5 11 16.5C12.1935 16.5 13.3381 16.0259 14.182 15.182C15.0259 14.3381 15.5 13.1935 15.5 12H13.5C13.5 12.6631 13.2366 13.2989 12.7678 13.7678C12.2989 14.2366 11.663 14.5 11 14.5C10.337 14.5 9.70107 14.2366 9.23223 13.7678C8.76339 13.2989 8.5 12.6631 8.5 12H6.5Z" fill="#979797"/>
<path d="M19 19C19 19.2652 18.8946 19.5196 18.7071 19.7071C18.5196 19.8947 18.2652 20 18 20H4C3.73478 20 3.48043 19.8947 3.29289 19.7071C3.10536 19.5196 3 19.2652 3 19V10H0L10.327 0.612012C10.5111 0.444489 10.7511 0.351654 11 0.351654C11.2489 0.351654 11.4889 0.444489 11.673 0.612012L22 10H19V19ZM6.5 12C6.5 13.1935 6.97411 14.3381 7.81802 15.182C8.66193 16.0259 9.80653 16.5 11 16.5C12.1935 16.5 13.3381 16.0259 14.182 15.182C15.0259 14.3381 15.5 13.1935 15.5 12H13.5C13.5 12.6631 13.2366 13.2989 12.7678 13.7678C12.2989 14.2366 11.663 14.5 11 14.5C10.337 14.5 9.70107 14.2366 9.23223 13.7678C8.76339 13.2989 8.5 12.6631 8.5 12H6.5Z" fill="black" fill-opacity="0.2"/>
</svg>
