<svg width="12" height="15" viewBox="0 0 12 15" fill="none" xmlns="http://www.w3.org/2000/svg">
<path d="M10.2427 10.576L6 14.8187L1.75734 10.576C0.918228 9.7369 0.346791 8.6678 0.115286 7.50392C-0.11622 6.34004 0.00260456 5.13364 0.456732 4.03729C0.91086 2.94093 1.6799 2.00387 2.66659 1.34458C3.65328 0.685297 4.81332 0.333405 6 0.333405C7.18669 0.333405 8.34672 0.685297 9.33342 1.34458C10.3201 2.00387 11.0891 2.94093 11.5433 4.03729C11.9974 5.13364 12.1162 6.34004 11.8847 7.50392C11.6532 8.6678 11.0818 9.7369 10.2427 10.576ZM6 7.66669C6.35362 7.66669 6.69276 7.52621 6.94281 7.27616C7.19286 7.02611 7.33334 6.68698 7.33334 6.33335C7.33334 5.97973 7.19286 5.64059 6.94281 5.39054C6.69276 5.1405 6.35362 5.00002 6 5.00002C5.64638 5.00002 5.30724 5.1405 5.05719 5.39054C4.80715 5.64059 4.66667 5.97973 4.66667 6.33335C4.66667 6.68698 4.80715 7.02611 5.05719 7.27616C5.30724 7.52621 5.64638 7.66669 6 7.66669Z" fill="black" fill-opacity="0.6"/>
</svg>
