<svg width="24" height="24" viewBox="0 0 24 24" fill="none" xmlns="http://www.w3.org/2000/svg">
<g clip-path="url(#clip0_152:37784)">
<path d="M12.7097 20.8696C12.7097 20.4796 12.3933 20.1636 12.0033 20.1636C11.6131 20.1636 11.2969 20.4796 11.2969 20.8696C11.2969 21.2596 11.6131 21.5757 12.0033 21.5757C12.3933 21.5757 12.7097 21.2596 12.7097 20.8696Z" fill="#121212"/>
<path d="M17.537 -0.046875H6.47004C5.17694 -0.046875 4.125 1.00507 4.125 2.29816V21.6081C4.125 22.9012 5.17694 23.9532 6.47004 23.9532H17.537C18.83 23.9532 19.882 22.9012 19.882 21.6081V2.29816C19.882 1.00507 18.83 -0.046875 17.537 -0.046875V-0.046875ZM5.53125 4.18379H18.4757V17.8539H5.53125V4.18379ZM6.47004 1.35938H17.537C18.0546 1.35938 18.4757 1.78052 18.4757 2.29816V2.77753H5.53125V2.29816C5.53125 1.78052 5.9524 1.35938 6.47004 1.35938V1.35938ZM17.537 22.5469H6.47004C5.9524 22.5469 5.53125 22.1258 5.53125 21.6081V19.2602H18.4757V21.6081C18.4757 22.1258 18.0546 22.5469 17.537 22.5469Z" fill="#121212"/>
<path d="M13.323 10.3156H12.616V9.52711H14.0427C14.4309 9.52711 14.7459 9.21235 14.7459 8.82398C14.7459 8.4358 14.4309 8.12086 14.0427 8.12086H12.616V7.14087C12.616 6.7525 12.3012 6.43774 11.9129 6.43774C11.5247 6.43774 11.2097 6.7525 11.2097 7.14087V8.12086H10.5577C9.5647 8.12086 8.75684 8.92854 8.75684 9.92134C8.75684 10.9143 9.5647 11.7218 10.5577 11.7218H11.2097V12.5103H9.75715C9.36896 12.5103 9.05402 12.825 9.05402 13.2134C9.05402 13.6018 9.36896 13.9165 9.75715 13.9165H11.2097V14.865C11.2097 15.2534 11.5247 15.5681 11.9129 15.5681C12.3012 15.5681 12.616 15.2534 12.616 14.865V13.9165H13.323C14.2857 13.9165 15.0691 13.1336 15.0691 12.171V12.0611C15.0691 11.0987 14.2857 10.3156 13.323 10.3156V10.3156ZM10.5579 10.3156C10.3402 10.3156 10.1631 10.1389 10.1631 9.92134C10.1631 9.70399 10.3402 9.52711 10.5579 9.52711H11.2099V10.3156H10.5579ZM13.6628 12.171C13.6628 12.3581 13.5103 12.5103 13.323 12.5103H12.616V11.722H13.323C13.5103 11.722 13.6628 11.8742 13.6628 12.0613V12.171Z" fill="#121212"/>
</g>
<defs>
<clipPath id="clip0_152:37784">
<rect width="24" height="24" fill="white"/>
</clipPath>
</defs>
</svg>
