<svg width="25" height="25" viewBox="0 0 25 25" fill="none" xmlns="http://www.w3.org/2000/svg">
<path d="M12.0077 16.377C11.4888 16.377 11.0681 16.7976 11.0681 17.3166V21.31C11.0681 21.829 11.4888 22.2496 12.0077 22.2496C12.5267 22.2496 12.9474 21.829 12.9474 21.31V17.3166C12.9474 16.7976 12.5267 16.377 12.0077 16.377Z" fill="#121212" fill-opacity="0.86"/>
<path d="M0.966974 5.66513C1.48593 5.66513 1.90661 5.24445 1.90661 4.7255V1.90661H4.7255C5.24445 1.90661 5.66513 1.48593 5.66513 0.966974C5.66513 0.448016 5.24445 0.0273438 4.7255 0.0273438H0.966974C0.448016 0.0273438 0.0273438 0.448016 0.0273438 0.966974V4.7255C0.0273438 5.24445 0.448016 5.66513 0.966974 5.66513Z" fill="#121212" fill-opacity="0.86"/>
<path d="M4.77239 16.377C4.25344 16.377 3.83276 16.7976 3.83276 17.3166V18.9609C3.83276 19.4799 4.25344 19.9006 4.77239 19.9006C5.29135 19.9006 5.71202 19.4799 5.71202 18.9609V17.3166C5.71202 16.7976 5.29135 16.377 4.77239 16.377Z" fill="#121212" fill-opacity="0.86"/>
<path d="M4.7255 22.2029H1.90661V19.384C1.90661 18.865 1.48593 18.4443 0.966974 18.4443C0.448016 18.4443 0.0273438 18.865 0.0273438 19.384V23.1425C0.0273438 23.6614 0.448016 24.0821 0.966974 24.0821H4.7255C5.24445 24.0821 5.66513 23.6614 5.66513 23.1425C5.66513 22.6235 5.24445 22.2029 4.7255 22.2029Z" fill="#121212" fill-opacity="0.86"/>
<path d="M8.39007 16.377C7.87111 16.377 7.45044 16.7976 7.45044 17.3166V18.9609C7.45044 19.4799 7.87111 19.9006 8.39007 19.9006C8.90903 19.9006 9.3297 19.4799 9.3297 18.9609V17.3166C9.3297 16.7976 8.90903 16.377 8.39007 16.377Z" fill="#121212" fill-opacity="0.86"/>
<path d="M23.1422 0.0273438H19.3837C18.8648 0.0273438 18.4441 0.448016 18.4441 0.966974C18.4441 1.48593 18.8648 1.90661 19.3837 1.90661H22.2026V4.7255C22.2026 5.24445 22.6233 5.66513 23.1422 5.66513C23.6612 5.66513 24.0819 5.24445 24.0819 4.7255V0.966974C24.0819 0.448016 23.6612 0.0273438 23.1422 0.0273438Z" fill="#121212" fill-opacity="0.86"/>
<path d="M15.766 16.377C15.2471 16.377 14.8264 16.7976 14.8264 17.3166V18.9609C14.8264 19.4799 15.2471 19.9006 15.766 19.9006C16.285 19.9006 16.7057 19.4799 16.7057 18.9609V17.3166C16.7057 16.7976 16.285 16.377 15.766 16.377Z" fill="#121212" fill-opacity="0.86"/>
<path d="M23.1423 13.088H20.4173V4.72528C20.4173 4.20632 19.9967 3.78564 19.4777 3.78564C18.9587 3.78564 18.5381 4.20632 18.5381 4.72528V13.088H16.7058V4.72528C16.7058 4.20632 16.2851 3.78564 15.7662 3.78564C15.2472 3.78564 14.8265 4.20632 14.8265 4.72528V13.088H12.9473V4.72528C12.9473 4.20632 12.5266 3.78564 12.0076 3.78564C11.4887 3.78564 11.068 4.20632 11.068 4.72528V13.088H9.32969V4.72528C9.32969 4.20632 8.90901 3.78564 8.39006 3.78564C7.8711 3.78564 7.45043 4.20632 7.45043 4.72528V13.088H5.71211V4.72528C5.71211 4.20632 5.29144 3.78564 4.77248 3.78564C4.25352 3.78564 3.83285 4.20632 3.83285 4.72528V13.088H0.966974C0.448016 13.088 0.0273438 13.5087 0.0273438 14.0276C0.0273438 14.5466 0.448016 14.9672 0.966974 14.9672H23.1423C23.6612 14.9672 24.0819 14.5466 24.0819 14.0276C24.0819 13.5087 23.6612 13.088 23.1423 13.088Z" fill="#121212" fill-opacity="0.86"/>
<path d="M19.4777 19.9006C19.9967 19.9006 20.4173 19.4799 20.4173 18.9609V17.3166C20.4173 16.7976 19.9967 16.377 19.4777 16.377C18.9588 16.377 18.5381 16.7976 18.5381 17.3166V18.9609C18.5381 19.4799 18.9588 19.9006 19.4777 19.9006Z" fill="#121212" fill-opacity="0.86"/>
<path d="M23.1422 18.4443C22.6233 18.4443 22.2026 18.865 22.2026 19.384V22.2029H19.3837C18.8648 22.2029 18.4441 22.6235 18.4441 23.1425C18.4441 23.6614 18.8648 24.0821 19.3837 24.0821H23.1422C23.6612 24.0821 24.0819 23.6614 24.0819 23.1425V19.384C24.0819 18.865 23.6612 18.4443 23.1422 18.4443Z" fill="#121212" fill-opacity="0.86"/>
</svg>
