<svg width="40" height="40" viewBox="0 0 40 40" fill="none" xmlns="http://www.w3.org/2000/svg">
<rect width="40" height="40" rx="8" fill="#EA2027"/>
<path d="M19.9453 25.0312C19.3412 25.0312 18.8516 25.5209 18.8516 26.125V30.7734C18.8516 31.3775 19.3412 31.8672 19.9453 31.8672C20.5494 31.8672 21.0391 31.3775 21.0391 30.7734V26.125C21.0391 25.5209 20.5494 25.0312 19.9453 25.0312Z" fill="white"/>
<path d="M7.09375 12.5625C7.69783 12.5625 8.1875 12.0728 8.1875 11.4688V8.1875H11.4688C12.0728 8.1875 12.5625 7.69783 12.5625 7.09375C12.5625 6.48967 12.0728 6 11.4688 6H7.09375C6.48967 6 6 6.48967 6 7.09375V11.4688C6 12.0728 6.48967 12.5625 7.09375 12.5625Z" fill="white"/>
<path d="M11.5234 25.0312C10.9194 25.0312 10.4297 25.5209 10.4297 26.125V28.0391C10.4297 28.6431 10.9194 29.1328 11.5234 29.1328C12.1275 29.1328 12.6172 28.6431 12.6172 28.0391V26.125C12.6172 25.5209 12.1275 25.0312 11.5234 25.0312Z" fill="white"/>
<path d="M11.4688 31.8125H8.1875V28.5312C8.1875 27.9272 7.69783 27.4375 7.09375 27.4375C6.48967 27.4375 6 27.9272 6 28.5312V32.9062C6 33.5103 6.48967 34 7.09375 34H11.4688C12.0728 34 12.5625 33.5103 12.5625 32.9062C12.5625 32.3022 12.0728 31.8125 11.4688 31.8125Z" fill="white"/>
<path d="M15.7344 25.0312C15.1303 25.0312 14.6406 25.5209 14.6406 26.125V28.0391C14.6406 28.6431 15.1303 29.1328 15.7344 29.1328C16.3385 29.1328 16.8281 28.6431 16.8281 28.0391V26.125C16.8281 25.5209 16.3385 25.0312 15.7344 25.0312Z" fill="white"/>
<path d="M32.9062 6H28.5312C27.9272 6 27.4375 6.48967 27.4375 7.09375C27.4375 7.69783 27.9272 8.1875 28.5312 8.1875H31.8125V11.4688C31.8125 12.0728 32.3022 12.5625 32.9062 12.5625C33.5103 12.5625 34 12.0728 34 11.4688V7.09375C34 6.48967 33.5103 6 32.9062 6Z" fill="white"/>
<path d="M24.3203 25.0312C23.7162 25.0312 23.2266 25.5209 23.2266 26.125V28.0391C23.2266 28.6431 23.7162 29.1328 24.3203 29.1328C24.9244 29.1328 25.4141 28.6431 25.4141 28.0391V26.125C25.4141 25.5209 24.9244 25.0312 24.3203 25.0312Z" fill="white"/>
<path d="M32.9062 21.2031H29.7344V11.4688C29.7344 10.8647 29.2447 10.375 28.6406 10.375C28.0365 10.375 27.5469 10.8647 27.5469 11.4688V21.2031H25.4141V11.4688C25.4141 10.8647 24.9244 10.375 24.3203 10.375C23.7162 10.375 23.2266 10.8647 23.2266 11.4688V21.2031H21.0391V11.4688C21.0391 10.8647 20.5494 10.375 19.9453 10.375C19.3412 10.375 18.8516 10.8647 18.8516 11.4688V21.2031H16.8281V11.4688C16.8281 10.8647 16.3385 10.375 15.7344 10.375C15.1303 10.375 14.6406 10.8647 14.6406 11.4688V21.2031H12.6172V11.4688C12.6172 10.8647 12.1275 10.375 11.5234 10.375C10.9194 10.375 10.4297 10.8647 10.4297 11.4688V21.2031H7.09375C6.48967 21.2031 6 21.6928 6 22.2969C6 22.901 6.48967 23.3906 7.09375 23.3906H32.9062C33.5103 23.3906 34 22.901 34 22.2969C34 21.6928 33.5103 21.2031 32.9062 21.2031Z" fill="white"/>
<path d="M28.6406 29.1328C29.2447 29.1328 29.7344 28.6431 29.7344 28.0391V26.125C29.7344 25.5209 29.2447 25.0312 28.6406 25.0312C28.0365 25.0312 27.5469 25.5209 27.5469 26.125V28.0391C27.5469 28.6431 28.0365 29.1328 28.6406 29.1328Z" fill="white"/>
<path d="M32.9062 27.4375C32.3022 27.4375 31.8125 27.9272 31.8125 28.5312V31.8125H28.5312C27.9272 31.8125 27.4375 32.3022 27.4375 32.9062C27.4375 33.5103 27.9272 34 28.5312 34H32.9062C33.5103 34 34 33.5103 34 32.9062V28.5312C34 27.9272 33.5103 27.4375 32.9062 27.4375Z" fill="white"/>
</svg>
