<svg width="24" height="24" viewBox="0 0 24 24" fill="none" xmlns="http://www.w3.org/2000/svg">
<path fill-rule="evenodd" clip-rule="evenodd" d="M13.5223 8.00043L10.0979 7.50072L10.7495 9.74966L14.0653 9.84185L13.9159 8.98301C13.7491 8.67481 13.6163 8.34555 13.5223 8.00043V8.00043ZM17.4664 18.2633C18.3903 18.2633 19.1394 19.0127 19.1394 19.9364C19.1394 20.8604 18.3903 21.6094 17.4664 21.6094C16.5426 21.6094 15.7934 20.8604 15.7934 19.9364C15.7934 19.0127 16.5426 18.2633 17.4664 18.2633ZM17.7172 19.6859C17.4947 19.4633 17.1119 19.621 17.1119 19.9364C17.1119 20.2518 17.4947 20.4094 17.7172 20.1873C17.8556 20.0488 17.8556 19.8241 17.7172 19.6859ZM9.659 18.2633C10.5828 18.2633 11.332 19.0127 11.332 19.9364C11.332 20.8604 10.5827 21.6094 9.659 21.6094C8.73512 21.6094 7.98591 20.8604 7.98591 19.9364C7.98591 19.0127 8.73512 18.2633 9.659 18.2633ZM9.90965 19.6859C9.68721 19.4633 9.30454 19.621 9.30454 19.9364C9.30454 20.2518 9.68729 20.4094 9.90965 20.1873C10.048 20.0488 10.048 19.8241 9.90965 19.6859ZM15.5549 10.723L15.9827 13.1822C17.0188 12.9051 17.9014 12.2631 18.4809 11.3958C17.4327 11.503 16.4109 11.255 15.5549 10.723V10.723ZM20.205 10.8659C19.5 12.8698 17.7273 14.3179 15.5779 14.5991L8.57736 15.515C8.2229 15.5985 8.04099 16.011 8.24396 16.3347C8.35483 16.5113 8.52369 16.6013 8.73441 16.6013H19.0652C19.4293 16.6013 19.7244 16.8965 19.7244 17.2606C19.7244 17.6247 19.4293 17.9199 19.0652 17.9199H8.73441C7.35991 17.9199 6.43338 16.5017 7.02395 15.2512C7.10177 15.0867 7.19854 14.9389 7.31197 14.8088L3.9099 6.43363L3.08481 5.83627C2.34873 6.23048 1.43842 6.00011 0.974407 5.3088C0.474964 4.56497 0.674495 3.55754 1.4178 3.05854C2.16163 2.55919 3.16889 2.75872 3.66789 3.50193C3.91404 3.86873 4.00975 4.34218 3.89615 4.79834L4.7045 5.38354L13.3605 6.64664C13.429 4.14185 15.4815 2.13184 18.003 2.13184C19.2858 2.13184 20.4476 2.65216 21.288 3.49329L22.0739 2.70716C22.3315 2.44973 22.7489 2.44973 23.0063 2.70716C23.2636 2.9645 23.2636 3.38198 23.0063 3.63933L22.0854 4.56012C23.3129 6.81638 22.4661 9.64567 20.205 10.8659ZM16.0641 7.01256C15.8066 6.75504 15.8066 6.33774 16.0641 6.08013C16.3213 5.8227 16.7389 5.8227 16.9962 6.08013L17.8487 6.93254L20.3557 4.42537C19.0871 3.11371 16.9264 3.14896 15.6512 4.42431C14.3526 5.72284 14.3526 7.82884 15.6512 9.12763C16.9501 10.4263 19.056 10.4263 20.3546 9.12763C21.3218 8.16065 21.5683 6.74614 21.0953 5.55019L18.3148 8.33083C18.0574 8.58835 17.64 8.58835 17.3827 8.33083L16.0641 7.01256ZM2.5762 4.23342C2.43017 4.01582 2.07509 4.06994 2.02097 4.34535C1.96615 4.6249 2.27506 4.80672 2.49318 4.66042C2.63181 4.56735 2.66874 4.37144 2.5762 4.23342ZM8.48597 14.1996C9.18133 14.1281 9.89634 14.0173 10.5917 13.926L9.75463 11.0363L7.17175 10.9645L8.48597 14.1996ZM11.1334 11.0745L11.9098 13.7538L14.6826 13.391L14.2949 11.1624L11.1334 11.0745ZM6.63168 9.635L9.37055 9.71115L8.66972 7.29229L5.49169 6.82837L6.63168 9.635Z" fill="#121212"/>
</svg>
