<svg width="44" height="44" viewBox="0 0 44 44" fill="none" xmlns="http://www.w3.org/2000/svg">
<g clip-path="url(#clip0_2005:33192)">
<path d="M17.7334 26.5968L19.3588 17.454H21.8985L20.3239 26.5968H17.7334Z" fill="#3C58BF"/>
<path d="M17.7334 26.5968L19.8159 17.454H21.8985L20.3239 26.5968H17.7334Z" fill="#293688"/>
<path d="M29.5175 17.5556C29.0096 17.3525 28.1969 17.1493 27.181 17.1493C24.6413 17.1493 22.8128 18.4191 22.8128 20.2477C22.8128 21.6191 24.0826 22.3302 25.0985 22.7874C26.1143 23.2445 26.4191 23.5493 26.4191 23.9556C26.4191 24.5652 25.6064 24.8699 24.8953 24.8699C23.8794 24.8699 23.3207 24.7175 22.4572 24.362L22.1016 24.2096L21.7461 26.2921C22.3556 26.5461 23.4731 26.8001 24.6413 26.8001C27.3334 26.8001 29.1112 25.5302 29.1112 23.6001C29.1112 22.5334 28.4509 21.7207 26.927 21.0604C26.0128 20.6033 25.454 20.3493 25.454 19.8921C25.454 19.4858 25.9112 19.0795 26.927 19.0795C27.7905 19.0795 28.4001 19.2318 28.8572 19.435L29.1112 19.5366L29.5175 17.5556Z" fill="#3C58BF"/>
<path d="M29.5175 17.5556C29.0096 17.3525 28.1969 17.1493 27.181 17.1493C24.6413 17.1493 23.2699 18.4191 23.2699 20.2477C23.2699 21.6191 24.0826 22.3302 25.0985 22.7874C26.1143 23.2445 26.4191 23.5493 26.4191 23.9556C26.4191 24.5652 25.6064 24.8699 24.8953 24.8699C23.8794 24.8699 23.3207 24.7175 22.4572 24.362L22.1016 24.2096L21.7461 26.2921C22.3556 26.5461 23.4731 26.8001 24.6413 26.8001C27.3334 26.8001 29.1112 25.5302 29.1112 23.6001C29.1112 22.5334 28.4509 21.7207 26.927 21.0604C26.0128 20.6033 25.454 20.3493 25.454 19.8921C25.454 19.4858 25.9112 19.0795 26.927 19.0795C27.7905 19.0795 28.4001 19.2318 28.8572 19.435L29.1112 19.5366L29.5175 17.5556Z" fill="#293688"/>
<path d="M33.8853 17.454C33.2757 17.454 32.8186 17.5048 32.5646 18.1143L28.7551 26.5968H31.498L32.0059 25.073H35.2567L35.5614 26.5968H37.9995L35.8662 17.454H33.8853ZM32.717 23.5492C32.8694 23.0921 33.7329 20.8572 33.7329 20.8572C33.7329 20.8572 33.9361 20.2984 34.0884 19.9429L34.2408 20.8064C34.2408 20.8064 34.7488 23.0921 34.8503 23.6H32.717V23.5492Z" fill="#3C58BF"/>
<path d="M34.4948 17.454C33.8853 17.454 33.4281 17.5048 33.1742 18.1143L28.7551 26.5968H31.498L32.0059 25.073H35.2567L35.5614 26.5968H37.9995L35.8662 17.454H34.4948ZM32.717 23.5492C32.9202 23.0413 33.7329 20.8572 33.7329 20.8572C33.7329 20.8572 33.9361 20.2984 34.0884 19.9429L34.2408 20.8064C34.2408 20.8064 34.7488 23.0921 34.8503 23.6H32.717V23.5492Z" fill="#293688"/>
<path d="M13.0599 23.854L12.8059 22.5333C12.3488 21.0095 10.8758 19.3333 9.25037 18.5206L11.5361 26.6476H14.2789L18.3932 17.5048H15.6504L13.0599 23.854Z" fill="#3C58BF"/>
<path d="M13.0599 23.854L12.8059 22.5333C12.3488 21.0095 10.8758 19.3333 9.25037 18.5206L11.5361 26.6476H14.2789L18.3932 17.5048H16.1583L13.0599 23.854Z" fill="#293688"/>
<path d="M6 17.454L6.45714 17.5556C9.70794 18.3175 11.9429 20.2476 12.8063 22.5333L11.8921 18.2159C11.7397 17.6064 11.2825 17.454 10.7238 17.454H6Z" fill="#FFBC00"/>
<path d="M6 17.454C9.25079 18.2159 11.9429 20.1968 12.8063 22.4826L11.9429 18.8762C11.7905 18.2667 11.2825 17.9111 10.7238 17.9111L6 17.454Z" fill="#F7981D"/>
<path d="M6 17.454C9.25079 18.2159 11.9429 20.1968 12.8063 22.4826L12.1968 20.5016C12.0444 19.8921 11.8413 19.2826 11.1302 19.0286L6 17.454Z" fill="#ED7C00"/>
<path d="M15.6002 23.5492L13.8732 21.8222L13.0605 23.7524L12.8573 22.4825C12.4002 20.9587 10.9272 19.2825 9.30176 18.4698L11.5875 26.5968H14.3303L15.6002 23.5492Z" fill="#051244"/>
<path d="M20.3244 26.5967L18.1402 24.3618L17.7339 26.5967H20.3244Z" fill="#051244"/>
<path d="M26.1651 23.4476C26.3683 23.6508 26.4699 23.8032 26.4191 24.0064C26.4191 24.6159 25.6064 24.9206 24.8953 24.9206C23.8794 24.9206 23.3207 24.7683 22.4572 24.4127L22.1016 24.2603L21.7461 26.3429C22.3556 26.5968 23.4731 26.8508 24.6413 26.8508C26.2667 26.8508 27.5874 26.3937 28.3493 25.581L26.1651 23.4476Z" fill="#051244"/>
<path d="M29.1113 26.5967H31.4986L32.0066 25.0729H35.2574L35.5621 26.5967H38.0002L37.1367 22.8888L34.0891 19.9427L34.2415 20.7554C34.2415 20.7554 34.7494 23.0412 34.851 23.5491H32.7177C32.9209 23.0412 33.7336 20.857 33.7336 20.857C33.7336 20.857 33.9367 20.2983 34.0891 19.9427" fill="#051244"/>
</g>
<rect x="0.5" y="0.5" width="43" height="43" rx="3.5" stroke="#121212" stroke-opacity="0.15"/>
<defs>
<clipPath id="clip0_2005:33192">
<rect width="32" height="32" fill="white" transform="translate(6 6)"/>
</clipPath>
</defs>
</svg>
