<svg width="130" height="130" viewBox="0 0 130 130" fill="none" xmlns="http://www.w3.org/2000/svg">
<path d="M5.2 0H0V5.2H5.2V0Z" fill="black"/>
<path d="M10.4 0H5.2V5.2H10.4V0Z" fill="black"/>
<path d="M15.6 0H10.4V5.2H15.6V0Z" fill="black"/>
<path d="M20.8 0H15.6V5.2H20.8V0Z" fill="black"/>
<path d="M26 0H20.8V5.2H26V0Z" fill="black"/>
<path d="M31.2 0H26V5.2H31.2V0Z" fill="black"/>
<path d="M36.4 0H31.2V5.2H36.4V0Z" fill="black"/>
<path d="M46.8 0H41.6V5.2H46.8V0Z" fill="black"/>
<path d="M52 0H46.8V5.2H52V0Z" fill="black"/>
<path d="M72.8 0H67.6V5.2H72.8V0Z" fill="black"/>
<path d="M88.4 0H83.2V5.2H88.4V0Z" fill="black"/>
<path d="M98.8 0H93.6V5.2H98.8V0Z" fill="black"/>
<path d="M104 0H98.8V5.2H104V0Z" fill="black"/>
<path d="M109.2 0H104V5.2H109.2V0Z" fill="black"/>
<path d="M114.4 0H109.2V5.2H114.4V0Z" fill="black"/>
<path d="M119.6 0H114.4V5.2H119.6V0Z" fill="black"/>
<path d="M124.8 0H119.6V5.2H124.8V0Z" fill="black"/>
<path d="M130 0H124.8V5.2H130V0Z" fill="black"/>
<path d="M5.2 5.2H0V10.4H5.2V5.2Z" fill="black"/>
<path d="M36.4 5.2H31.2L31.2 10.4H36.4V5.2Z" fill="black"/>
<path d="M67.6 5.2H62.4V10.4H67.6V5.2Z" fill="black"/>
<path d="M72.8 5.2H67.6V10.4H72.8V5.2Z" fill="black"/>
<path d="M88.4 5.2H83.2V10.4H88.4V5.2Z" fill="black"/>
<path d="M98.8 5.2H93.6V10.4H98.8V5.2Z" fill="black"/>
<path d="M130 5.2H124.8V10.4H130V5.2Z" fill="black"/>
<path d="M5.2 10.4H0V15.6H5.2V10.4Z" fill="black"/>
<path d="M15.6 10.4H10.4V15.6H15.6V10.4Z" fill="black"/>
<path d="M20.8 10.4H15.6V15.6H20.8V10.4Z" fill="black"/>
<path d="M26 10.4H20.8V15.6H26V10.4Z" fill="black"/>
<path d="M36.4 10.4H31.2V15.6H36.4V10.4Z" fill="black"/>
<path d="M52 10.4H46.8V15.6H52V10.4Z" fill="black"/>
<path d="M57.2 10.4H52V15.6H57.2V10.4Z" fill="black"/>
<path d="M62.4 10.4H57.2V15.6H62.4V10.4Z" fill="black"/>
<path d="M67.6 10.4H62.4V15.6H67.6V10.4Z" fill="black"/>
<path d="M72.8 10.4H67.6V15.6H72.8V10.4Z" fill="black"/>
<path d="M88.4 10.4H83.2V15.6H88.4V10.4Z" fill="black"/>
<path d="M98.8 10.4H93.6V15.6H98.8V10.4Z" fill="black"/>
<path d="M109.2 10.4H104V15.6H109.2V10.4Z" fill="black"/>
<path d="M114.4 10.4H109.2V15.6H114.4V10.4Z" fill="black"/>
<path d="M119.6 10.4H114.4V15.6H119.6V10.4Z" fill="black"/>
<path d="M130 10.4H124.8V15.6H130V10.4Z" fill="black"/>
<path d="M5.2 15.6H0V20.8H5.2V15.6Z" fill="black"/>
<path d="M15.6 15.6H10.4V20.8H15.6V15.6Z" fill="black"/>
<path d="M20.8 15.6H15.6V20.8H20.8V15.6Z" fill="black"/>
<path d="M26 15.6H20.8V20.8H26V15.6Z" fill="black"/>
<path d="M36.4 15.6H31.2V20.8H36.4V15.6Z" fill="black"/>
<path d="M52 15.6H46.8V20.8H52V15.6Z" fill="black"/>
<path d="M57.2 15.6H52V20.8H57.2V15.6Z" fill="black"/>
<path d="M72.8 15.6H67.6V20.8H72.8V15.6Z" fill="black"/>
<path d="M98.8 15.6H93.6V20.8H98.8V15.6Z" fill="black"/>
<path d="M109.2 15.6H104V20.8H109.2V15.6Z" fill="black"/>
<path d="M114.4 15.6H109.2V20.8H114.4V15.6Z" fill="black"/>
<path d="M119.6 15.6H114.4V20.8H119.6V15.6Z" fill="black"/>
<path d="M130 15.6H124.8V20.8H130V15.6Z" fill="black"/>
<path d="M5.2 20.8H0V26H5.2V20.8Z" fill="black"/>
<path d="M15.6 20.8H10.4V26H15.6V20.8Z" fill="black"/>
<path d="M20.8 20.8H15.6V26H20.8V20.8Z" fill="black"/>
<path d="M26 20.8H20.8V26H26V20.8Z" fill="black"/>
<path d="M36.4 20.8H31.2V26H36.4V20.8Z" fill="black"/>
<path d="M46.8 20.8H41.6V26H46.8V20.8Z" fill="black"/>
<path d="M57.2 20.8H52V26H57.2V20.8Z" fill="black"/>
<path d="M62.4 20.8H57.2V26H62.4V20.8Z" fill="black"/>
<path d="M67.6 20.8H62.4V26H67.6V20.8Z" fill="black"/>
<path d="M78 20.8H72.8V26H78V20.8Z" fill="black"/>
<path d="M98.8 20.8H93.6V26H98.8V20.8Z" fill="black"/>
<path d="M109.2 20.8H104V26H109.2V20.8Z" fill="black"/>
<path d="M114.4 20.8H109.2V26H114.4V20.8Z" fill="black"/>
<path d="M119.6 20.8H114.4V26H119.6V20.8Z" fill="black"/>
<path d="M130 20.8H124.8V26H130V20.8Z" fill="black"/>
<path d="M5.2 26H0V31.2H5.2V26Z" fill="black"/>
<path d="M36.4 26H31.2V31.2H36.4V26Z" fill="black"/>
<path d="M78 26H72.8V31.2H78V26Z" fill="black"/>
<path d="M98.8 26H93.6V31.2H98.8V26Z" fill="black"/>
<path d="M130 26H124.8V31.2H130V26Z" fill="black"/>
<path d="M5.2 31.2H0V36.4H5.2V31.2Z" fill="black"/>
<path d="M10.4 31.2L5.2 31.2V36.4H10.4V31.2Z" fill="black"/>
<path d="M15.6 31.2H10.4V36.4H15.6V31.2Z" fill="black"/>
<path d="M20.8 31.2H15.6V36.4H20.8V31.2Z" fill="black"/>
<path d="M26 31.2H20.8V36.4H26V31.2Z" fill="black"/>
<path d="M31.2 31.2L26 31.2V36.4H31.2L31.2 31.2Z" fill="black"/>
<path d="M36.4 31.2H31.2L31.2 36.4H36.4V31.2Z" fill="black"/>
<path d="M46.8 31.2H41.6V36.4H46.8V31.2Z" fill="black"/>
<path d="M57.2 31.2H52V36.4H57.2V31.2Z" fill="black"/>
<path d="M67.6 31.2H62.4V36.4H67.6V31.2Z" fill="black"/>
<path d="M78 31.2H72.8V36.4H78V31.2Z" fill="black"/>
<path d="M88.4 31.2H83.2V36.4H88.4V31.2Z" fill="black"/>
<path d="M98.8 31.2H93.6V36.4H98.8V31.2Z" fill="black"/>
<path d="M104 31.2L98.8 31.2V36.4H104V31.2Z" fill="black"/>
<path d="M109.2 31.2H104V36.4H109.2V31.2Z" fill="black"/>
<path d="M114.4 31.2H109.2V36.4H114.4V31.2Z" fill="black"/>
<path d="M119.6 31.2H114.4V36.4H119.6V31.2Z" fill="black"/>
<path d="M124.8 31.2L119.6 31.2V36.4H124.8V31.2Z" fill="black"/>
<path d="M130 31.2H124.8V36.4H130V31.2Z" fill="black"/>
<path d="M46.8 36.4H41.6V41.6H46.8V36.4Z" fill="black"/>
<path d="M57.2 36.4H52V41.6H57.2V36.4Z" fill="black"/>
<path d="M67.6 36.4H62.4V41.6H67.6V36.4Z" fill="black"/>
<path d="M72.8 36.4H67.6V41.6H72.8V36.4Z" fill="black"/>
<path d="M83.2 36.4H78L78 41.6H83.2V36.4Z" fill="black"/>
<path d="M88.4 36.4H83.2V41.6H88.4V36.4Z" fill="black"/>
<path d="M5.2 41.6H0V46.8H5.2V41.6Z" fill="black"/>
<path d="M20.8 41.6H15.6V46.8H20.8V41.6Z" fill="black"/>
<path d="M26 41.6H20.8V46.8H26V41.6Z" fill="black"/>
<path d="M31.2 41.6H26V46.8H31.2V41.6Z" fill="black"/>
<path d="M36.4 41.6H31.2V46.8H36.4V41.6Z" fill="black"/>
<path d="M41.6 41.6H36.4V46.8H41.6V41.6Z" fill="black"/>
<path d="M46.8 41.6H41.6V46.8H46.8V41.6Z" fill="black"/>
<path d="M52 41.6H46.8V46.8H52V41.6Z" fill="black"/>
<path d="M72.8 41.6H67.6V46.8H72.8V41.6Z" fill="black"/>
<path d="M88.4 41.6H83.2V46.8H88.4V41.6Z" fill="black"/>
<path d="M93.6 41.6H88.4V46.8H93.6V41.6Z" fill="black"/>
<path d="M98.8 41.6H93.6V46.8H98.8V41.6Z" fill="black"/>
<path d="M109.2 41.6H104V46.8H109.2V41.6Z" fill="black"/>
<path d="M130 41.6H124.8V46.8H130V41.6Z" fill="black"/>
<path d="M10.4 46.8H5.2V52H10.4V46.8Z" fill="black"/>
<path d="M20.8 46.8H15.6V52H20.8V46.8Z" fill="black"/>
<path d="M26 46.8H20.8V52H26V46.8Z" fill="black"/>
<path d="M41.6 46.8H36.4V52H41.6V46.8Z" fill="black"/>
<path d="M46.8 46.8H41.6V52H46.8V46.8Z" fill="black"/>
<path d="M67.6 46.8H62.4V52H67.6V46.8Z" fill="black"/>
<path d="M83.2 46.8H78V52H83.2V46.8Z" fill="black"/>
<path d="M93.6 46.8H88.4V52H93.6V46.8Z" fill="black"/>
<path d="M98.8 46.8H93.6V52H98.8V46.8Z" fill="black"/>
<path d="M109.2 46.8H104V52H109.2V46.8Z" fill="black"/>
<path d="M114.4 46.8H109.2V52H114.4V46.8Z" fill="black"/>
<path d="M119.6 46.8H114.4V52H119.6V46.8Z" fill="black"/>
<path d="M124.8 46.8H119.6V52H124.8V46.8Z" fill="black"/>
<path d="M130 46.8H124.8V52H130V46.8Z" fill="black"/>
<path d="M5.2 52H0V57.2H5.2V52Z" fill="black"/>
<path d="M10.4 52H5.2V57.2H10.4V52Z" fill="black"/>
<path d="M20.8 52H15.6V57.2H20.8V52Z" fill="black"/>
<path d="M26 52H20.8V57.2H26V52Z" fill="black"/>
<path d="M31.2 52H26V57.2H31.2V52Z" fill="black"/>
<path d="M36.4 52H31.2V57.2H36.4V52Z" fill="black"/>
<path d="M41.6 52H36.4V57.2H41.6V52Z" fill="black"/>
<path d="M52 52H46.8V57.2H52V52Z" fill="black"/>
<path d="M62.4 52H57.2V57.2H62.4V52Z" fill="black"/>
<path d="M67.6 52H62.4V57.2H67.6V52Z" fill="black"/>
<path d="M78 52H72.8V57.2H78L78 52Z" fill="black"/>
<path d="M88.4 52H83.2V57.2H88.4V52Z" fill="black"/>
<path d="M93.6 52H88.4V57.2H93.6V52Z" fill="black"/>
<path d="M98.8 52H93.6V57.2H98.8V52Z" fill="black"/>
<path d="M104 52H98.8V57.2H104V52Z" fill="black"/>
<path d="M109.2 52H104V57.2H109.2V52Z" fill="black"/>
<path d="M114.4 52H109.2V57.2H114.4V52Z" fill="black"/>
<path d="M119.6 52H114.4V57.2H119.6V52Z" fill="black"/>
<path d="M124.8 52H119.6V57.2H124.8V52Z" fill="black"/>
<path d="M5.2 57.2H0V62.4H5.2V57.2Z" fill="black"/>
<path d="M26 57.2H20.8V62.4H26V57.2Z" fill="black"/>
<path d="M31.2 57.2H26V62.4H31.2V57.2Z" fill="black"/>
<path d="M41.6 57.2H36.4V62.4H41.6V57.2Z" fill="black"/>
<path d="M52 57.2H46.8V62.4H52V57.2Z" fill="black"/>
<path d="M57.2 57.2H52V62.4H57.2V57.2Z" fill="black"/>
<path d="M78 57.2H72.8V62.4H78V57.2Z" fill="black"/>
<path d="M83.2 57.2H78V62.4H83.2V57.2Z" fill="black"/>
<path d="M109.2 57.2H104V62.4H109.2V57.2Z" fill="black"/>
<path d="M119.6 57.2H114.4V62.4H119.6V57.2Z" fill="black"/>
<path d="M124.8 57.2H119.6V62.4H124.8V57.2Z" fill="black"/>
<path d="M5.2 62.4H0V67.6H5.2V62.4Z" fill="black"/>
<path d="M20.8 62.4H15.6V67.6H20.8V62.4Z" fill="black"/>
<path d="M26 62.4H20.8V67.6H26V62.4Z" fill="black"/>
<path d="M31.2 62.4H26V67.6H31.2V62.4Z" fill="black"/>
<path d="M36.4 62.4H31.2V67.6H36.4V62.4Z" fill="black"/>
<path d="M41.6 62.4H36.4V67.6H41.6V62.4Z" fill="black"/>
<path d="M46.8 62.4H41.6V67.6H46.8V62.4Z" fill="black"/>
<path d="M57.2 62.4H52V67.6H57.2V62.4Z" fill="black"/>
<path d="M62.4 62.4H57.2V67.6H62.4V62.4Z" fill="black"/>
<path d="M72.8 62.4H67.6V67.6H72.8V62.4Z" fill="black"/>
<path d="M78 62.4H72.8V67.6H78V62.4Z" fill="black"/>
<path d="M88.4 62.4H83.2V67.6H88.4V62.4Z" fill="black"/>
<path d="M104 62.4H98.8V67.6H104V62.4Z" fill="black"/>
<path d="M114.4 62.4H109.2V67.6H114.4V62.4Z" fill="black"/>
<path d="M119.6 62.4H114.4V67.6H119.6V62.4Z" fill="black"/>
<path d="M130 62.4H124.8V67.6H130V62.4Z" fill="black"/>
<path d="M5.2 67.6H0V72.8H5.2V67.6Z" fill="black"/>
<path d="M10.4 67.6H5.2V72.8H10.4V67.6Z" fill="black"/>
<path d="M41.6 67.6H36.4V72.8H41.6V67.6Z" fill="black"/>
<path d="M46.8 67.6H41.6V72.8H46.8V67.6Z" fill="black"/>
<path d="M52 67.6H46.8V72.8H52V67.6Z" fill="black"/>
<path d="M67.6 67.6H62.4V72.8H67.6V67.6Z" fill="black"/>
<path d="M78 67.6H72.8V72.8H78V67.6Z" fill="black"/>
<path d="M83.2 67.6H78V72.8H83.2V67.6Z" fill="black"/>
<path d="M88.4 67.6H83.2V72.8H88.4V67.6Z" fill="black"/>
<path d="M93.6 67.6H88.4V72.8H93.6V67.6Z" fill="black"/>
<path d="M109.2 67.6H104V72.8H109.2V67.6Z" fill="black"/>
<path d="M119.6 67.6H114.4V72.8H119.6V67.6Z" fill="black"/>
<path d="M124.8 67.6H119.6V72.8H124.8V67.6Z" fill="black"/>
<path d="M130 67.6H124.8V72.8H130V67.6Z" fill="black"/>
<path d="M5.2 72.8H0V78H5.2V72.8Z" fill="black"/>
<path d="M10.4 72.8H5.2V78H10.4V72.8Z" fill="black"/>
<path d="M15.6 72.8H10.4V78H15.6V72.8Z" fill="black"/>
<path d="M36.4 72.8H31.2V78H36.4V72.8Z" fill="black"/>
<path d="M52 72.8H46.8V78H52V72.8Z" fill="black"/>
<path d="M62.4 72.8H57.2V78H62.4V72.8Z" fill="black"/>
<path d="M67.6 72.8H62.4V78H67.6V72.8Z" fill="black"/>
<path d="M78 72.8H72.8V78H78V72.8Z" fill="black"/>
<path d="M93.6 72.8H88.4V78H93.6V72.8Z" fill="black"/>
<path d="M104 72.8H98.8V78H104V72.8Z" fill="black"/>
<path d="M109.2 72.8H104V78H109.2V72.8Z" fill="black"/>
<path d="M119.6 72.8H114.4V78H119.6V72.8Z" fill="black"/>
<path d="M10.4 78H5.2V83.2H10.4V78Z" fill="black"/>
<path d="M41.6 78L36.4 78V83.2H41.6V78Z" fill="black"/>
<path d="M67.6 78H62.4V83.2H67.6V78Z" fill="black"/>
<path d="M78 78H72.8V83.2H78V78Z" fill="black"/>
<path d="M83.2 78L78 78V83.2H83.2V78Z" fill="black"/>
<path d="M98.8 78H93.6V83.2H98.8V78Z" fill="black"/>
<path d="M109.2 78H104V83.2H109.2V78Z" fill="black"/>
<path d="M124.8 78L119.6 78V83.2H124.8V78Z" fill="black"/>
<path d="M5.2 83.2H0V88.4H5.2V83.2Z" fill="black"/>
<path d="M31.2 83.2H26V88.4H31.2V83.2Z" fill="black"/>
<path d="M36.4 83.2H31.2V88.4H36.4V83.2Z" fill="black"/>
<path d="M41.6 83.2H36.4V88.4H41.6V83.2Z" fill="black"/>
<path d="M52 83.2H46.8V88.4H52V83.2Z" fill="black"/>
<path d="M57.2 83.2H52V88.4H57.2V83.2Z" fill="black"/>
<path d="M67.6 83.2H62.4V88.4H67.6V83.2Z" fill="black"/>
<path d="M83.2 83.2H78L78 88.4H83.2V83.2Z" fill="black"/>
<path d="M88.4 83.2H83.2V88.4H88.4V83.2Z" fill="black"/>
<path d="M93.6 83.2H88.4V88.4H93.6V83.2Z" fill="black"/>
<path d="M98.8 83.2H93.6V88.4H98.8V83.2Z" fill="black"/>
<path d="M104 83.2H98.8V88.4H104V83.2Z" fill="black"/>
<path d="M109.2 83.2H104V88.4H109.2V83.2Z" fill="black"/>
<path d="M114.4 83.2H109.2V88.4H114.4V83.2Z" fill="black"/>
<path d="M124.8 83.2H119.6V88.4H124.8V83.2Z" fill="black"/>
<path d="M46.8 88.4H41.6V93.6H46.8V88.4Z" fill="black"/>
<path d="M57.2 88.4H52V93.6H57.2V88.4Z" fill="black"/>
<path d="M67.6 88.4H62.4V93.6H67.6V88.4Z" fill="black"/>
<path d="M83.2 88.4H78V93.6H83.2V88.4Z" fill="black"/>
<path d="M88.4 88.4H83.2V93.6H88.4V88.4Z" fill="black"/>
<path d="M109.2 88.4H104V93.6H109.2V88.4Z" fill="black"/>
<path d="M114.4 88.4H109.2V93.6H114.4V88.4Z" fill="black"/>
<path d="M119.6 88.4H114.4V93.6H119.6V88.4Z" fill="black"/>
<path d="M5.2 93.6H0V98.8H5.2V93.6Z" fill="black"/>
<path d="M10.4 93.6H5.2V98.8H10.4V93.6Z" fill="black"/>
<path d="M15.6 93.6H10.4V98.8H15.6V93.6Z" fill="black"/>
<path d="M20.8 93.6H15.6V98.8H20.8V93.6Z" fill="black"/>
<path d="M26 93.6H20.8V98.8H26V93.6Z" fill="black"/>
<path d="M31.2 93.6H26V98.8H31.2V93.6Z" fill="black"/>
<path d="M36.4 93.6H31.2V98.8H36.4V93.6Z" fill="black"/>
<path d="M46.8 93.6H41.6V98.8H46.8V93.6Z" fill="black"/>
<path d="M67.6 93.6H62.4V98.8H67.6V93.6Z" fill="black"/>
<path d="M83.2 93.6H78V98.8H83.2V93.6Z" fill="black"/>
<path d="M88.4 93.6H83.2V98.8H88.4V93.6Z" fill="black"/>
<path d="M98.8 93.6H93.6V98.8H98.8V93.6Z" fill="black"/>
<path d="M109.2 93.6H104V98.8H109.2V93.6Z" fill="black"/>
<path d="M114.4 93.6H109.2V98.8H114.4V93.6Z" fill="black"/>
<path d="M119.6 93.6H114.4V98.8H119.6V93.6Z" fill="black"/>
<path d="M130 93.6H124.8V98.8H130V93.6Z" fill="black"/>
<path d="M5.2 98.8H0V104H5.2V98.8Z" fill="black"/>
<path d="M36.4 98.8H31.2L31.2 104H36.4V98.8Z" fill="black"/>
<path d="M46.8 98.8H41.6V104H46.8V98.8Z" fill="black"/>
<path d="M57.2 98.8H52V104H57.2V98.8Z" fill="black"/>
<path d="M78 98.8H72.8V104H78L78 98.8Z" fill="black"/>
<path d="M88.4 98.8H83.2V104H88.4V98.8Z" fill="black"/>
<path d="M109.2 98.8H104V104H109.2V98.8Z" fill="black"/>
<path d="M119.6 98.8H114.4V104H119.6V98.8Z" fill="black"/>
<path d="M5.2 104H0V109.2H5.2V104Z" fill="black"/>
<path d="M15.6 104H10.4V109.2H15.6V104Z" fill="black"/>
<path d="M20.8 104H15.6V109.2H20.8V104Z" fill="black"/>
<path d="M26 104H20.8V109.2H26V104Z" fill="black"/>
<path d="M36.4 104H31.2V109.2H36.4V104Z" fill="black"/>
<path d="M46.8 104H41.6V109.2H46.8V104Z" fill="black"/>
<path d="M52 104H46.8V109.2H52V104Z" fill="black"/>
<path d="M57.2 104H52V109.2H57.2V104Z" fill="black"/>
<path d="M72.8 104H67.6V109.2H72.8V104Z" fill="black"/>
<path d="M78 104H72.8V109.2H78V104Z" fill="black"/>
<path d="M88.4 104H83.2V109.2H88.4V104Z" fill="black"/>
<path d="M93.6 104H88.4V109.2H93.6V104Z" fill="black"/>
<path d="M98.8 104H93.6V109.2H98.8V104Z" fill="black"/>
<path d="M104 104H98.8V109.2H104V104Z" fill="black"/>
<path d="M109.2 104H104V109.2H109.2V104Z" fill="black"/>
<path d="M130 104H124.8V109.2H130V104Z" fill="black"/>
<path d="M5.2 109.2H0V114.4H5.2V109.2Z" fill="black"/>
<path d="M15.6 109.2H10.4V114.4H15.6V109.2Z" fill="black"/>
<path d="M20.8 109.2H15.6V114.4H20.8V109.2Z" fill="black"/>
<path d="M26 109.2H20.8V114.4H26V109.2Z" fill="black"/>
<path d="M36.4 109.2H31.2V114.4H36.4V109.2Z" fill="black"/>
<path d="M46.8 109.2H41.6V114.4H46.8V109.2Z" fill="black"/>
<path d="M67.6 109.2H62.4V114.4H67.6V109.2Z" fill="black"/>
<path d="M88.4 109.2H83.2V114.4H88.4V109.2Z" fill="black"/>
<path d="M93.6 109.2H88.4V114.4H93.6V109.2Z" fill="black"/>
<path d="M114.4 109.2H109.2V114.4H114.4V109.2Z" fill="black"/>
<path d="M5.2 114.4H0V119.6H5.2V114.4Z" fill="black"/>
<path d="M15.6 114.4H10.4V119.6H15.6V114.4Z" fill="black"/>
<path d="M20.8 114.4H15.6V119.6H20.8V114.4Z" fill="black"/>
<path d="M26 114.4H20.8V119.6H26V114.4Z" fill="black"/>
<path d="M36.4 114.4H31.2V119.6H36.4V114.4Z" fill="black"/>
<path d="M62.4 114.4H57.2V119.6H62.4V114.4Z" fill="black"/>
<path d="M67.6 114.4H62.4V119.6H67.6V114.4Z" fill="black"/>
<path d="M78 114.4H72.8V119.6H78V114.4Z" fill="black"/>
<path d="M83.2 114.4H78V119.6H83.2V114.4Z" fill="black"/>
<path d="M88.4 114.4H83.2V119.6H88.4V114.4Z" fill="black"/>
<path d="M104 114.4H98.8V119.6H104V114.4Z" fill="black"/>
<path d="M109.2 114.4H104V119.6H109.2V114.4Z" fill="black"/>
<path d="M119.6 114.4H114.4V119.6H119.6V114.4Z" fill="black"/>
<path d="M124.8 114.4H119.6V119.6H124.8V114.4Z" fill="black"/>
<path d="M130 114.4H124.8V119.6H130V114.4Z" fill="black"/>
<path d="M5.2 119.6H0V124.8H5.2V119.6Z" fill="black"/>
<path d="M36.4 119.6H31.2V124.8H36.4V119.6Z" fill="black"/>
<path d="M52 119.6H46.8V124.8H52V119.6Z" fill="black"/>
<path d="M57.2 119.6H52V124.8H57.2V119.6Z" fill="black"/>
<path d="M62.4 119.6H57.2V124.8H62.4V119.6Z" fill="black"/>
<path d="M72.8 119.6H67.6V124.8H72.8V119.6Z" fill="black"/>
<path d="M78 119.6H72.8V124.8H78V119.6Z" fill="black"/>
<path d="M93.6 119.6H88.4V124.8H93.6V119.6Z" fill="black"/>
<path d="M98.8 119.6H93.6V124.8H98.8V119.6Z" fill="black"/>
<path d="M104 119.6H98.8V124.8H104V119.6Z" fill="black"/>
<path d="M109.2 119.6H104V124.8H109.2V119.6Z" fill="black"/>
<path d="M119.6 119.6H114.4V124.8H119.6V119.6Z" fill="black"/>
<path d="M124.8 119.6H119.6V124.8H124.8V119.6Z" fill="black"/>
<path d="M130 119.6H124.8V124.8H130V119.6Z" fill="black"/>
<path d="M5.2 124.8H0V130H5.2V124.8Z" fill="black"/>
<path d="M10.4 124.8H5.2V130H10.4V124.8Z" fill="black"/>
<path d="M15.6 124.8H10.4V130H15.6V124.8Z" fill="black"/>
<path d="M20.8 124.8H15.6V130H20.8V124.8Z" fill="black"/>
<path d="M26 124.8H20.8V130H26V124.8Z" fill="black"/>
<path d="M31.2 124.8H26V130H31.2L31.2 124.8Z" fill="black"/>
<path d="M36.4 124.8H31.2L31.2 130H36.4V124.8Z" fill="black"/>
<path d="M46.8 124.8H41.6V130H46.8V124.8Z" fill="black"/>
<path d="M62.4 124.8H57.2V130H62.4V124.8Z" fill="black"/>
<path d="M67.6 124.8H62.4V130H67.6V124.8Z" fill="black"/>
<path d="M88.4 124.8H83.2V130H88.4V124.8Z" fill="black"/>
<path d="M114.4 124.8H109.2V130H114.4V124.8Z" fill="black"/>
<path d="M130 124.8H124.8V130H130V124.8Z" fill="black"/>
</svg>
