<svg width="18" height="18" viewBox="0 0 18 18" fill="none" xmlns="http://www.w3.org/2000/svg">
<path d="M3.55565 6.11093H14.9125L15.3199 4.4813H5.18528V2.85167H16.3645C16.4884 2.85167 16.6106 2.87991 16.7219 2.93424C16.8332 2.98857 16.9307 3.06756 17.0069 3.1652C17.0831 3.26284 17.136 3.37657 17.1617 3.49775C17.1873 3.61892 17.185 3.74434 17.1549 3.86449L15.1179 12.0126C15.0737 12.1888 14.972 12.3452 14.8288 12.457C14.6856 12.5687 14.5091 12.6294 14.3275 12.6294H2.74083C2.52473 12.6294 2.31748 12.5436 2.16467 12.3908C2.01186 12.238 1.92602 12.0307 1.92602 11.8146V2.03686H0.296387V0.407227H2.74083C2.95693 0.407227 3.16418 0.493073 3.31699 0.64588C3.4698 0.798688 3.55565 1.00594 3.55565 1.22204V6.11093ZM3.55565 17.5183C3.12344 17.5183 2.70894 17.3466 2.40332 17.041C2.09771 16.7354 1.92602 16.3209 1.92602 15.8887C1.92602 15.4565 2.09771 15.042 2.40332 14.7364C2.70894 14.4308 3.12344 14.2591 3.55565 14.2591C3.98785 14.2591 4.40235 14.4308 4.70797 14.7364C5.01358 15.042 5.18528 15.4565 5.18528 15.8887C5.18528 16.3209 5.01358 16.7354 4.70797 17.041C4.40235 17.3466 3.98785 17.5183 3.55565 17.5183ZM13.3334 17.5183C12.9012 17.5183 12.4867 17.3466 12.1811 17.041C11.8755 16.7354 11.7038 16.3209 11.7038 15.8887C11.7038 15.4565 11.8755 15.042 12.1811 14.7364C12.4867 14.4308 12.9012 14.2591 13.3334 14.2591C13.7656 14.2591 14.1801 14.4308 14.4857 14.7364C14.7914 15.042 14.9631 15.4565 14.9631 15.8887C14.9631 16.3209 14.7914 16.7354 14.4857 17.041C14.1801 17.3466 13.7656 17.5183 13.3334 17.5183Z" fill="white"/>
</svg>
