<svg width="18" height="19" viewBox="0 0 18 19" fill="none" xmlns="http://www.w3.org/2000/svg">
<path d="M8.08329 0.75L16.3325 1.92917L17.5108 10.1792L9.85079 17.8392C9.69452 17.9954 9.48259 18.0832 9.26162 18.0832C9.04065 18.0832 8.82873 17.9954 8.67246 17.8392L0.422456 9.58917C0.26623 9.43289 0.178467 9.22097 0.178467 9C0.178467 8.77903 0.26623 8.56711 0.422456 8.41083L8.08329 0.75ZM10.44 7.82167C10.5948 7.97641 10.7785 8.09914 10.9807 8.18287C11.183 8.26659 11.3997 8.30967 11.6186 8.30963C11.8375 8.30959 12.0542 8.26644 12.2564 8.18264C12.4586 8.09885 12.6423 7.97605 12.797 7.82125C12.9518 7.66646 13.0745 7.4827 13.1582 7.28047C13.242 7.07824 13.285 6.8615 13.285 6.64262C13.285 6.42375 13.2418 6.20702 13.158 6.00482C13.0742 5.80262 12.9514 5.61891 12.7966 5.46417C12.6418 5.30943 12.4581 5.18669 12.2558 5.10297C12.0536 5.01924 11.8369 4.97617 11.618 4.97621C11.176 4.97629 10.7521 5.15196 10.4395 5.46458C10.127 5.77721 9.9515 6.20117 9.95158 6.64321C9.95166 7.08525 10.1273 7.50915 10.44 7.82167Z" fill="#EA2027"/>
</svg>
