<svg width="42" height="20" viewBox="0 0 42 20" fill="none" xmlns="http://www.w3.org/2000/svg">
<g clip-path="url(#clip0_2070:32041)">
<path d="M15.4001 15.861L17.5335 3.9563H20.8668L18.8001 15.861H15.4001Z" fill="#3C58BF"/>
<path d="M15.4001 15.861L18.1335 3.9563H20.8668L18.8001 15.861H15.4001Z" fill="#293688"/>
<path d="M30.8667 4.08867C30.2 3.82412 29.1334 3.55957 27.8 3.55957C24.4667 3.55957 22.0667 5.213 22.0667 7.59394C22.0667 9.37965 23.7334 10.3056 25.0667 10.9008C26.4001 11.496 26.8001 11.8929 26.8001 12.422C26.8001 13.2156 25.7334 13.6124 24.8001 13.6124C23.4667 13.6124 22.7334 13.414 21.6001 12.9511L21.1334 12.7526L20.6667 15.4643C21.4667 15.795 22.9334 16.1256 24.4667 16.1256C28 16.1256 30.3334 14.4722 30.3334 11.959C30.3334 10.5701 29.4667 9.51192 27.4667 8.65214C26.2667 8.0569 25.5334 7.72622 25.5334 7.13098C25.5334 6.60188 26.1334 6.07278 27.4667 6.07278C28.6 6.07278 29.4 6.2712 30 6.53575L30.3334 6.66802L30.8667 4.08867Z" fill="#3C58BF"/>
<path d="M30.8667 4.08867C30.2 3.82412 29.1334 3.55957 27.8 3.55957C24.4667 3.55957 22.6667 5.213 22.6667 7.59394C22.6667 9.37965 23.7334 10.3056 25.0667 10.9008C26.4001 11.496 26.8001 11.8929 26.8001 12.422C26.8001 13.2156 25.7334 13.6124 24.8001 13.6124C23.4667 13.6124 22.7334 13.414 21.6001 12.9511L21.1334 12.7526L20.6667 15.4643C21.4667 15.795 22.9334 16.1256 24.4667 16.1256C28 16.1256 30.3334 14.4722 30.3334 11.959C30.3334 10.5701 29.4667 9.51192 27.4667 8.65214C26.2667 8.0569 25.5334 7.72622 25.5334 7.13098C25.5334 6.60188 26.1334 6.07278 27.4667 6.07278C28.6 6.07278 29.4 6.2712 30 6.53575L30.3334 6.66802L30.8667 4.08867Z" fill="#293688"/>
<path d="M36.5995 3.9563C35.7995 3.9563 35.1995 4.02244 34.8662 4.81608L29.8662 15.861H33.4662L34.1328 13.8769H38.3995L38.7995 15.861H41.9994L39.1995 3.9563H36.5995ZM35.0662 11.8928C35.2662 11.2975 36.3995 8.38749 36.3995 8.38749C36.3995 8.38749 36.6661 7.65998 36.8661 7.19702L37.0661 8.32136C37.0661 8.32136 37.7328 11.2975 37.8661 11.9589H35.0662V11.8928Z" fill="#3C58BF"/>
<path d="M37.3995 3.9563C36.5995 3.9563 35.9995 4.02244 35.6662 4.81608L29.8662 15.861H33.4662L34.1328 13.8769H38.3995L38.7995 15.861H41.9994L39.1995 3.9563H37.3995ZM35.0662 11.8928C35.3328 11.2314 36.3995 8.38749 36.3995 8.38749C36.3995 8.38749 36.6661 7.65998 36.8661 7.19702L37.0661 8.32136C37.0661 8.32136 37.7328 11.2975 37.8661 11.9589H35.0662V11.8928Z" fill="#293688"/>
<path d="M9.26584 12.2897L8.93251 10.5702C8.33251 8.58604 6.39919 6.40352 4.26587 5.34532L7.26585 15.9273H10.8658L16.2658 4.02258H12.6658L9.26584 12.2897Z" fill="#3C58BF"/>
<path d="M9.26584 12.2897L8.93251 10.5702C8.33251 8.58604 6.39919 6.40352 4.26587 5.34532L7.26585 15.9273H10.8658L16.2658 4.02258H13.3325L9.26584 12.2897Z" fill="#293688"/>
<path d="M0 3.9563L0.599997 4.08857C4.86664 5.08063 7.79996 7.59385 8.93328 10.57L7.73329 4.94836C7.53329 4.15471 6.9333 3.9563 6.19997 3.9563H0Z" fill="#FFBC00"/>
<path d="M0 3.9563C4.26664 4.94836 7.79996 7.52771 8.93328 10.5039L7.79996 5.80814C7.59996 5.0145 6.9333 4.55153 6.19997 4.55153L0 3.9563Z" fill="#F7981D"/>
<path d="M0 3.9563C4.26664 4.94836 7.79996 7.52771 8.93328 10.5039L8.13329 7.92453C7.93329 7.13089 7.66663 6.33724 6.7333 6.00655L0 3.9563Z" fill="#ED7C00"/>
<path d="M12.6001 11.8927L10.3335 9.64399L9.2668 12.1572L9.00014 10.5038C8.40014 8.51966 6.46682 6.33713 4.3335 5.27893L7.33348 15.8609H10.9335L12.6001 11.8927Z" fill="#051244"/>
<path d="M18.8004 15.861L15.9337 12.9509L15.4004 15.861H18.8004Z" fill="#051244"/>
<path d="M26.4667 11.7603C26.7334 12.0248 26.8667 12.2232 26.8001 12.4878C26.8001 13.2814 25.7334 13.6782 24.8001 13.6782C23.4667 13.6782 22.7334 13.4798 21.6001 13.0169L21.1334 12.8185L20.6667 15.5301C21.4667 15.8608 22.9334 16.1915 24.4667 16.1915C26.6001 16.1915 28.3334 15.5962 29.3334 14.538L26.4667 11.7603Z" fill="#051244"/>
<path d="M30.3337 15.8609H33.4671L34.1337 13.8768H38.4004L38.8004 15.8609H42.0003L40.867 11.0329L36.867 7.1969L37.067 8.25509C37.067 8.25509 37.7337 11.2313 37.867 11.8926H35.067C35.3337 11.2313 36.4004 8.38737 36.4004 8.38737C36.4004 8.38737 36.667 7.65986 36.867 7.1969" fill="#051244"/>
</g>
<defs>
<clipPath id="clip0_2070:32041">
<rect width="42" height="20" fill="white"/>
</clipPath>
</defs>
</svg>
